Coordinates
version=1
nRows=16
nColumns=63
inDegrees=yes

Units are S.I. units (second, meters, Newtons, ...)
If the header above contains a line with 'inDegrees', this indicates whether rotational values are in degrees (yes) or radians (no).

endheader
time	pelvis_tilt	pelvis_list	pelvis_rotation	pelvis_tx	pelvis_ty	pelvis_tz	hip_flexion_r	hip_adduction_r	hip_rotation_r	knee_angle_r	knee_angle_r_beta	ankle_angle_r	subtalar_angle_r	mtp_angle_r	hip_flexion_l	hip_adduction_l	hip_rotation_l	knee_angle_l	knee_angle_l_beta	ankle_angle_l	subtalar_angle_l	mtp_angle_l	L5_S1_Flex_Ext	L5_S1_Lat_Bending	L5_S1_axial_rotation	L4_L5_Flex_Ext	L4_L5_Lat_Bending	L4_L5_axial_rotation	L3_L4_Flex_Ext	L3_L4_Lat_Bending	L3_L4_axial_rotation	L2_L3_Flex_Ext	L2_L3_Lat_Bending	L2_L3_axial_rotation	L1_L2_Flex_Ext	L1_L2_Lat_Bending	L1_L2_axial_rotation	L1_T12_Flex_Ext	L1_T12_Lat_Bending	L1_T12_axial_rotation	Abs_r3	Abs_r2	Abs_r1	Abs_t1	Abs_t2	neck_flexion	neck_bending	neck_rotation	arm_flex_r	arm_add_r	arm_rot_r	elbow_flex_r	pro_sup_r	wrist_flex_r	wrist_dev_r	arm_flex_l	arm_add_l	arm_rot_l	elbow_flex_l	pro_sup_l	wrist_flex_l	wrist_dev_l
0.000000	0.879654	-3.843966	94.848159	0.161524	1.123915	0.460881	3.789379	-0.236981	-8.471448	7.871355	0.137381	32.673727	15.445631	0.000000	8.594971	-0.271277	-5.667875	14.616959	0.255114	33.051839	10.589214	0.000000	0.464619	-0.004051	-1.446919	0.862845	-0.005388	-1.537352	0.763323	-0.009849	-1.537352	0.531014	-0.009849	-1.266054	0.431446	-0.008261	-1.175622	0.265484	-0.006275	-1.085189	3.318730	-0.045825	-8.047330	0.000000	0.000000	27.818475	-2.288134	9.976367	54.546372	0.050891	48.697353	41.698667	73.027114	2.770580	-4.401767	44.564816	-15.671257	38.391810	57.756267	38.439057	-2.669125	12.054304
0.016949	0.599850	-3.769486	94.742489	0.161410	1.124160	0.460141	3.920639	-0.637099	-8.623541	8.264587	0.144244	33.114735	15.933623	0.000000	8.358034	0.130461	-4.654849	14.336338	0.250216	33.151641	9.851317	0.000000	0.456968	-0.037653	-1.231258	0.848635	-0.050079	-1.308212	0.750753	-0.091550	-1.308212	0.522269	-0.091550	-1.077351	0.424341	-0.076782	-1.000397	0.261112	-0.058325	-0.923444	3.264077	-0.425940	-6.847888	0.000000	0.000000	27.858592	-2.848259	8.920602	53.486994	-0.369961	46.151648	42.937679	68.540057	1.374823	-1.039272	45.265870	-15.152599	41.020151	57.062030	39.093318	-2.485552	7.059852
0.033898	0.378662	-3.695376	94.681298	0.161309	1.124401	0.459638	3.994578	-0.950518	-8.732303	8.563424	0.149460	33.422084	16.245843	0.000000	8.155445	0.451667	-3.759349	14.118090	0.246407	33.224125	9.229632	0.000000	0.446641	-0.064075	-1.062578	0.829456	-0.085220	-1.128989	0.733786	-0.155792	-1.128989	0.510466	-0.155792	-0.929755	0.414751	-0.130662	-0.863344	0.255210	-0.099252	-0.796933	3.190310	-0.724830	-5.909738	0.000000	0.000000	27.878989	-3.398891	7.939111	52.641744	-0.778331	44.079111	44.055946	65.777067	0.339801	1.533256	45.988680	-14.862700	43.394665	56.634024	39.250745	-2.417130	3.108761
0.050847	0.210327	-3.622170	94.657945	0.161221	1.124638	0.459348	4.017835	-1.185717	-8.802302	8.776717	0.153183	33.610258	16.403870	0.000000	7.984638	0.699883	-2.976964	13.956260	0.243583	33.272734	8.715737	0.000000	0.434032	-0.083994	-0.936217	0.806041	-0.111712	-0.994731	0.713071	-0.204223	-0.994731	0.496055	-0.204223	-0.819190	0.403042	-0.171281	-0.760677	0.248006	-0.130107	-0.702163	3.100247	-0.950158	-5.206960	0.000000	0.000000	27.879371	-3.932821	7.032970	51.989779	-1.171848	42.438797	45.058766	64.527685	-0.373043	3.392295	46.720698	-14.773866	45.525234	56.439033	38.986256	-2.447192	0.088083
0.067797	0.089085	-3.550397	94.665788	0.161148	1.124867	0.459252	3.997045	-1.351172	-8.838106	8.913319	0.155567	33.693739	16.429286	0.000000	7.843047	0.882648	-2.303286	13.844889	0.241639	33.300913	8.301211	0.000000	0.419537	-0.098088	-0.847518	0.779121	-0.130457	-0.900488	0.689257	-0.238491	-0.900488	0.479488	-0.238491	-0.741578	0.389582	-0.200021	-0.688608	0.239723	-0.151938	-0.635638	2.996708	-1.109589	-4.713640	0.000000	0.000000	27.859440	-4.442838	6.203251	51.510251	-1.548137	41.189761	45.951431	64.581452	-0.802262	4.614318	47.449373	-14.858406	47.421740	56.443839	38.374770	-2.559073	-2.115128
0.084746	0.009172	-3.480591	94.698187	0.161090	1.125088	0.459326	3.938845	-1.455361	-8.844285	8.982080	0.156767	33.687011	16.343671	0.000000	7.728106	1.007501	-1.733904	13.778022	0.240472	33.312106	7.977634	0.000000	0.403549	-0.107034	-0.791819	0.749431	-0.142355	-0.841308	0.662991	-0.260242	-0.841308	0.461216	-0.260242	-0.692842	0.374736	-0.218263	-0.643353	0.230588	-0.165795	-0.593864	2.882510	-1.210787	-4.403860	0.000000	0.000000	27.818901	-4.921730	5.451030	51.182316	-1.904827	40.291060	46.739238	65.727912	-0.986412	5.275803	48.162155	-15.088627	49.094063	56.615225	37.491208	-2.736109	-3.613821
0.101695	-0.035174	-3.413281	94.748501	0.161047	1.125299	0.459550	3.849870	-1.506763	-8.825408	8.991854	0.156937	33.604556	16.168608	0.000000	7.637248	1.081981	-1.264408	13.749701	0.239978	33.309756	7.736585	0.000000	0.386464	-0.111509	-0.764461	0.717702	-0.148307	-0.812240	0.634922	-0.271124	-0.812240	0.441690	-0.271124	-0.668903	0.358870	-0.227390	-0.621125	0.220826	-0.172728	-0.573346	2.760473	-1.261415	-4.251703	0.000000	0.000000	27.757459	-5.362288	4.777379	50.985128	-2.239545	39.701747	47.427480	67.756604	-0.964046	5.453224	48.846497	-15.436837	50.552084	56.919971	36.410488	-2.961633	-4.520942
0.118644	-0.049715	-3.349001	94.810089	0.161019	1.125498	0.459902	3.736758	-1.513856	-8.786043	8.951490	0.156233	33.460856	15.925676	0.000000	7.567907	1.113629	-0.890389	13.753970	0.240052	33.297306	7.569642	0.000000	0.368676	-0.112192	-0.760784	0.684668	-0.149215	-0.808333	0.605698	-0.272783	-0.808333	0.421360	-0.272783	-0.665686	0.342352	-0.228782	-0.618137	0.210661	-0.173785	-0.570588	2.633416	-1.269138	-4.231251	0.000000	0.000000	27.674818	-5.757299	4.183373	50.897843	-2.549918	39.380877	48.021453	70.457072	-0.773719	5.223058	49.489846	-15.875343	51.805684	57.324861	35.207531	-3.218981	-4.949438
0.135593	-0.040213	-3.288281	94.876311	0.161008	1.125683	0.460361	3.606145	-1.485116	-8.730759	8.869842	0.154808	33.270396	15.636456	0.000000	7.517517	1.109983	-0.607438	13.784873	0.240591	33.278201	7.468384	0.000000	0.350580	-0.109759	-0.776128	0.651061	-0.145980	-0.824636	0.575967	-0.266869	-0.824636	0.400677	-0.266869	-0.679112	0.325548	-0.223821	-0.630604	0.200321	-0.170017	-0.582096	2.504155	-1.241618	-4.316589	0.000000	0.000000	27.570681	-6.099555	3.670086	50.899616	-2.833574	39.287507	48.526452	73.618856	-0.453986	4.661778	50.079655	-16.376453	52.864743	57.796677	33.957254	-3.491486	-5.012258
0.152542	-0.012431	-3.231654	94.940525	0.161012	1.125852	0.460904	3.464666	-1.429022	-8.664124	8.755761	0.152817	33.047657	15.322530	0.000000	7.483512	1.078583	-0.411143	13.836451	0.241492	33.255884	7.424390	0.000000	0.332570	-0.104889	-0.805833	0.617615	-0.139502	-0.856197	0.546379	-0.255026	-0.856197	0.380094	-0.255026	-0.705104	0.308824	-0.213889	-0.654739	0.190030	-0.162473	-0.604374	2.375512	-1.186521	-4.481799	0.000000	0.000000	27.444754	-6.381843	3.238591	50.969600	-3.088140	39.380691	48.947771	77.031498	-0.043401	3.845862	50.603373	-16.912473	53.739144	58.302201	32.734578	-3.762485	-4.822347
0.169492	0.027870	-3.179650	94.996091	0.161033	1.126005	0.461511	3.318960	-1.354052	-8.590709	8.618099	0.150414	32.807123	15.005478	0.000000	7.463325	1.026968	-0.297096	13.902749	0.242649	33.233800	7.429240	0.000000	0.315041	-0.098258	-0.845239	0.585062	-0.130683	-0.898066	0.517580	-0.238904	-0.898066	0.360060	-0.238904	-0.739584	0.292547	-0.200367	-0.686756	0.180014	-0.152201	-0.633929	2.250303	-1.111510	-4.700964	0.000000	0.000000	27.296740	-6.596953	2.889964	51.086951	-3.311244	39.619484	49.290704	80.484541	0.419481	2.851785	51.048451	-17.455712	54.438766	58.808214	31.614421	-4.015311	-4.492655
0.186441	0.066065	-3.134203	95.038210	0.161089	1.126146	0.462162	3.187430	-1.283233	-8.601722	8.468444	0.147802	32.607349	14.862173	0.000000	7.456240	0.965498	-0.312964	13.979490	0.243988	33.186303	7.542293	0.000000	0.299013	-0.091705	-0.869398	0.555298	-0.121968	-0.923736	0.491249	-0.222971	-0.923736	0.341742	-0.222971	-0.760723	0.277664	-0.187005	-0.706386	0.170856	-0.142051	-0.652049	2.135823	-1.037384	-4.835332	0.000000	0.000000	27.136498	-6.770467	2.611145	51.133358	-3.530226	39.601561	49.683834	83.817242	0.873866	2.198263	51.481200	-17.923743	55.390480	59.090367	30.984261	-4.039898	-4.969985
0.203390	0.096093	-3.091030	95.053195	0.161147	1.126273	0.462850	3.071035	-1.225455	-8.637905	8.332752	0.145434	32.431157	14.781942	0.000000	7.454459	0.920162	-0.334345	14.047792	0.245180	33.165610	7.591143	0.000000	0.284949	-0.085813	-0.899713	0.529178	-0.114131	-0.955945	0.468142	-0.208645	-0.955945	0.325668	-0.208645	-0.787249	0.264603	-0.174989	-0.731017	0.162820	-0.132924	-0.674785	2.035359	-0.970729	-5.003932	0.000000	0.000000	26.930207	-6.810341	2.452664	51.181681	-3.663040	39.751929	49.894557	86.287477	1.330341	1.383676	51.741707	-18.327215	56.039795	59.297638	30.555835	-3.987774	-5.454405
0.220339	0.130100	-3.051811	95.030126	0.161208	1.126387	0.463527	2.962845	-1.150066	-8.468131	8.181919	0.142801	32.241997	14.489389	0.000000	7.456644	0.876962	-0.368773	14.106482	0.246205	33.172088	7.579434	0.000000	0.272789	-0.078996	-0.932348	0.506597	-0.105065	-0.990620	0.448166	-0.192071	-0.990620	0.311771	-0.192071	-0.815805	0.253312	-0.161089	-0.757533	0.155872	-0.122365	-0.699261	1.948508	-0.893619	-5.185442	0.000000	0.000000	26.683304	-6.729037	2.405260	51.250646	-3.728005	40.073287	49.957041	87.939032	1.699446	0.475243	51.778003	-18.629556	56.261588	59.432158	30.643761	-3.922957	-5.979856
0.237288	0.148560	-3.026264	94.939497	0.161316	1.126466	0.464176	2.901474	-1.109736	-8.440696	8.078784	0.141001	32.121981	14.479547	0.000000	7.464334	0.839192	-0.558590	14.150797	0.246978	33.224267	7.671343	0.000000	0.263819	-0.073835	-0.956997	0.489939	-0.098200	-1.016809	0.433429	-0.179522	-1.016809	0.301519	-0.179522	-0.837373	0.244983	-0.150564	-0.777560	0.150746	-0.114370	-0.717748	1.884435	-0.835234	-5.322531	0.000000	0.000000	26.386744	-6.503029	2.445755	51.349461	-3.744177	40.637615	49.925964	87.967998	1.834523	-0.361918	51.617185	-18.827465	56.124278	59.503512	31.062361	-3.881131	-6.561177
0.254237	0.151992	-3.008659	94.781394	0.161469	1.126511	0.464786	2.873770	-1.089505	-8.386327	8.001953	0.139660	32.054899	14.537812	0.000000	7.471481	0.811567	-0.849277	14.182132	0.247525	33.306268	7.796606	0.000000	0.255923	-0.069654	-0.964889	0.475274	-0.092640	-1.025194	0.420456	-0.169357	-1.025194	0.292494	-0.169357	-0.844277	0.237650	-0.142039	-0.783972	0.146234	-0.107894	-0.723666	1.828031	-0.787941	-5.366421	0.000000	0.000000	26.063327	-6.171961	2.601471	51.472620	-3.756505	41.338140	49.861263	86.891394	1.681070	-1.077712	51.340602	-18.904769	55.816743	59.474499	31.709309	-3.915335	-7.428288
